<?xml version="1.0" encoding="UTF-8" standalone="no" ?>
<!DOCTYPE svg PUBLIC "-//W3C//DTD SVG 1.1//EN" "http://www.w3.org/Graphics/SVG/1.1/DTD/svg11.dtd">
<svg xmlns="http://www.w3.org/2000/svg" xmlns:xlink="http://www.w3.org/1999/xlink" version="1.1" width="1080" height="1080" viewBox="0 0 1080 1080" xml:space="preserve">
<desc>Created with Fabric.js 5.2.4</desc>
<defs>
</defs>
<g transform="matrix(1 0 0 1 540 540)" id="32bd9a27-e1ba-4319-af1a-21fdaef80ddb"  >
<rect style="stroke: none; stroke-width: 1; stroke-dasharray: none; stroke-linecap: butt; stroke-dashoffset: 0; stroke-linejoin: miter; stroke-miterlimit: 4; fill: rgb(255,255,255); fill-rule: nonzero; opacity: 1; visibility: hidden;" vector-effect="non-scaling-stroke"  x="-540" y="-540" rx="0" ry="0" width="1080" height="1080" />
</g>
<g transform="matrix(1 0 0 1 540 540)" id="396b4d23-519a-4956-b6cf-e12141bcd275"  >
</g>
<g transform="matrix(1.07 0 0 1.07 542.92 542.92)"  >
<g style="" vector-effect="non-scaling-stroke"   >
		<g transform="matrix(1 0 0 1 0 0)"  >
<rect style="stroke: none; stroke-width: 1; stroke-dasharray: none; stroke-linecap: butt; stroke-dashoffset: 0; stroke-linejoin: miter; stroke-miterlimit: 4; fill: rgb(221,153,50); fill-rule: nonzero; opacity: 1;" vector-effect="non-scaling-stroke"  x="-512" y="-512" rx="0" ry="0" width="1024" height="1024" />
</g>
		<g transform="matrix(1 0 0 1 0 0)"  >
<path style="stroke: none; stroke-width: 1; stroke-dasharray: none; stroke-linecap: butt; stroke-dashoffset: 0; stroke-linejoin: miter; stroke-miterlimit: 4; fill: rgb(128,86,23); fill-rule: nonzero; opacity: 1;" vector-effect="non-scaling-stroke"  transform=" translate(3.22, 19.32)" d="M 225.5 -342.4 C 276.2 -273.5 290.3 -186.2 324.3 -100.8 C 358.2 -15.5 412.1 68 393.7 129 C 375.3 189.9 284.7 228.5 207 280.1 C 129.3 331.7 64.7 396.3 -14.4 416.1 C -93.5 436 -186.9 410.9 -249.7 354.5 C -312.5 298.1 -344.5 210.2 -370.2 122.4 C -396 34.5 -415.3 -53.4 -396.1 -133.8 C -376.9 -214.2 -319.3 -287.1 -246.8 -348.9 C -174.4 -410.7 -87.2 -461.3 0.1 -461.5 C 87.4 -461.6 174.8 -411.2 225.5 -342.4" stroke-linecap="round" />
</g>
</g>
</g>
<g transform="matrix(0.51 0 0 0.51 521.28 518.24)"  >
<g style="" vector-effect="non-scaling-stroke"   >
		<g transform="matrix(0.13 0 0 -0.13 -8.75 -368.93)"  >
<path style="stroke: none; stroke-width: 1; stroke-dasharray: none; stroke-linecap: butt; stroke-dashoffset: 0; stroke-linejoin: miter; stroke-miterlimit: 4; fill: rgb(0,0,0); fill-rule: nonzero; opacity: 1;" vector-effect="non-scaling-stroke"  transform=" translate(-4960, -8063.03)" d="M 4785 9851 C 4713 9841 4611 9817 4551 9795 C 4462 9763 4314 9666 4266 9610 L 4240 9579 L 4209 9600 C 4186 9617 4159 9624 4096 9627 C 3992 9634 3977 9627 3873 9516 C 3781 9419 3737 9351 3605 9105 C 3548 8998 3469 8888 3429 8859 C 3413 8848 3400 8832 3400 8825 C 3400 8804 3363 8773 3330 8766 C 3298 8760 3190 8692 3190 8679 C 3190 8674 3202 8670 3216 8670 C 3254 8670 3419 8710 3426 8721 C 3429 8726 3444 8730 3460 8730 C 3477 8730 3513 8739 3542 8750 C 3571 8761 3598 8770 3602 8770 C 3606 8770 3585 8746 3556 8718 C 3527 8689 3491 8643 3476 8615 C 3460 8588 3440 8554 3430 8540 C 3401 8498 3348 8369 3329 8295 C 3319 8257 3306 8169 3300 8100 C 3294 8031 3285 7941 3279 7900 C 3268 7809 3267 7633 3278 7626 C 3283 7623 3304 7650 3326 7686 C 3347 7721 3368 7750 3371 7750 C 3374 7750 3380 7725 3384 7694 C 3396 7587 3483 7379 3538 7324 C 3558 7305 3570 7280 3574 7251 C 3578 7227 3599 7159 3621 7101 C 3643 7043 3668 6964 3676 6926 C 3687 6872 3701 6843 3744 6784 C 3774 6743 3808 6687 3820 6658 C 3832 6629 3852 6597 3865 6587 L 3889 6570 L 3869 6616 C 3857 6641 3850 6664 3853 6666 C 3855 6668 3865 6653 3874 6631 C 3888 6602 3896 6594 3911 6597 C 3930 6602 3942 6582 4006 6430 C 4029 6377 4096 6270 4108 6270 C 4112 6270 4097 6309 4074 6358 C 4023 6463 3965 6663 3950 6780 C 3927 6974 3925 7261 3948 7260 C 3952 7260 3966 7251 3978 7242 C 4001 7224 4002 7222 3991 7149 C 3977 7055 3988 6982 4031 6888 C 4071 6803 4156 6720 4257 6670 C 4320 6638 4332 6636 4425 6635 C 4515 6635 4531 6638 4581 6663 C 4654 6699 4709 6743 4756 6804 C 4811 6877 4831 6946 4833 7062 L 4835 7160 L 4883 7180 C 4948 7208 4999 7208 5057 7179 L 5104 7155 L 5101 7084 C 5093 6859 5272 6660 5514 6628 C 5615 6614 5699 6631 5789 6682 C 5857 6721 5946 6808 5983 6872 C 6019 6934 6048 7050 6054 7153 L 6059 7235 L 6132 7235 C 6172 7235 6219 7233 6235 7230 C 6262 7225 6265 7228 6268 7256 C 6270 7281 6264 7293 6234 7320 C 6193 7356 6203 7356 6286 7320 L 6328 7302 L 6305 7209 C 6265 7044 6217 6930 6179 6909 C 6167 6903 6143 6901 6124 6905 C 6084 6912 6086 6915 6039 6761 C 6022 6704 5992 6623 5973 6581 C 5936 6500 5898 6399 5903 6394 C 5905 6392 5931 6406 5961 6426 C 6027 6470 6123 6561 6158 6615 L 6184 6655 L 6199 6618 C 6208 6597 6220 6580 6227 6580 C 6238 6580 6327 6794 6349 6875 C 6379 6984 6393 7074 6394 7162 C 6395 7225 6399 7263 6408 7271 C 6414 7278 6420 7294 6420 7307 C 6420 7320 6424 7330 6429 7330 C 6435 7330 6473 7314 6515 7295 L 6591 7261 L 6602 7285 C 6612 7306 6607 7327 6573 7420 C 6551 7481 6537 7530 6541 7530 C 6546 7530 6579 7519 6616 7505 C 6697 7475 6730 7473 6730 7498 C 6730 7509 6722 7524 6711 7534 C 6683 7559 6599 7733 6593 7777 C 6591 7798 6598 7866 6609 7929 C 6673 8282 6655 8568 6551 8846 C 6528 8906 6501 8967 6490 8982 C 6479 8997 6470 9012 6470 9016 C 6470 9019 6445 9058 6415 9102 C 6385 9146 6360 9185 6360 9188 C 6360 9201 6127 9414 6086 9440 C 6063 9454 6010 9482 5968 9502 C 5925 9523 5890 9543 5890 9548 C 5890 9560 5811 9594 5732 9616 C 5698 9626 5670 9637 5670 9641 C 5670 9645 5703 9651 5744 9655 C 5784 9659 5823 9666 5830 9670 C 5845 9679 5710 9724 5619 9740 C 5584 9746 5536 9760 5513 9771 C 5489 9781 5461 9790 5450 9790 C 5439 9790 5413 9797 5393 9805 C 5374 9813 5341 9820 5320 9820 C 5300 9820 5261 9827 5234 9835 C 5177 9852 4877 9863 4785 9851 z M 4975 9699 C 4953 9695 4868 9682 4785 9670 C 4523 9632 4412 9596 4271 9501 C 4103 9389 3987 9250 3878 9032 C 3808 8893 3806 8893 3842 9033 C 3863 9111 3927 9248 3980 9325 C 4044 9418 4133 9486 4299 9570 C 4484 9663 4682 9705 4935 9707 C 5001 9708 5008 9706 4975 9699 z M 5584 9435 C 5669 9384 5753 9313 5861 9203 C 6028 9032 6047 9001 6020 8949 C 6012 8935 6014 8922 6025 8899 C 6034 8882 6039 8866 6037 8864 C 6034 8861 6006 8887 5974 8921 C 5941 8955 5880 9008 5836 9039 C 5665 9162 5580 9218 5509 9257 C 5402 9316 5238 9428 5249 9434 C 5273 9450 5383 9468 5451 9469 C 5520 9470 5531 9467 5584 9435 z M 4954 9336 C 5028 9320 5106 9295 5169 9267 C 5270 9221 5435 9116 5527 9036 C 5650 8931 5837 8704 5939 8537 C 6011 8419 6195 8015 6166 8039 C 6158 8046 6095 8137 6024 8243 C 5918 8403 5876 8455 5780 8551 C 5620 8712 5422 8850 5225 8938 C 5011 9033 4736 9110 4510 9137 C 4377 9152 4372 9152 4281 9131 C 4177 9107 4125 9084 4024 9016 C 3986 8991 3953 8975 3952 8980 C 3946 8996 4088 9158 4153 9211 C 4245 9285 4370 9338 4505 9360 C 4596 9375 4828 9363 4954 9336 z M 3948 8758 C 3964 8742 3963 8720 3946 8720 C 3926 8720 3793 8628 3743 8581 C 3602 8446 3482 8205 3480 8055 L 3480 8025 L 3460 8050 C 3434 8083 3435 8118 3466 8218 C 3499 8328 3528 8392 3591 8498 C 3649 8596 3698 8652 3750 8681 C 3769 8692 3800 8710 3819 8722 C 3847 8740 3913 8768 3931 8770 C 3934 8770 3941 8765 3948 8758 z M 3901 8454 C 3866 8395 3832 8303 3798 8180 L 3767 8065 L 3764 7747 C 3763 7572 3760 7426 3757 7423 C 3746 7413 3721 7479 3709 7546 C 3703 7584 3698 7696 3698 7795 C 3698 7943 3702 7993 3720 8075 C 3754 8226 3828 8401 3886 8463 C 3920 8500 3926 8497 3901 8454 z M 4605 7854 C 4697 7786 5025 7589 5075 7571 C 5080 7569 5006 7648 4910 7746 C 4814 7844 4749 7912 4766 7896 C 4787 7878 4799 7873 4802 7881 C 4804 7888 4819 7881 4843 7860 C 4863 7843 4886 7830 4893 7833 C 4901 7836 4933 7818 4966 7794 C 4998 7770 5028 7750 5033 7750 C 5038 7750 5065 7735 5093 7717 C 5122 7698 5161 7674 5180 7662 C 5228 7634 5336 7600 5379 7600 C 5399 7599 5426 7593 5439 7586 C 5461 7574 5459 7573 5404 7566 C 5305 7555 5211 7520 5194 7488 C 5175 7451 5176 7445 5205 7417 L 5231 7394 L 5198 7358 C 5180 7339 5156 7305 5145 7284 C 5113 7219 5113 7219 5067 7241 C 5003 7269 4947 7266 4850 7227 C 4839 7222 4822 7240 4790 7288 C 4765 7324 4737 7363 4727 7373 C 4709 7391 4709 7392 4729 7406 C 4776 7440 4733 7508 4650 7530 C 4486 7574 4310 7593 4235 7574 C 4203 7566 4201 7589 4231 7616 C 4286 7665 4412 7892 4426 7967 L 4432 8001 L 4484 7953 C 4512 7926 4567 7882 4605 7854 z M 4280 7516 C 4280 7493 4264 7489 4263 7511 C 4262 7521 4265 7530 4271 7530 C 4276 7530 4280 7524 4280 7516 z M 5820 7503 C 5820 7489 5818 7488 5811 7499 C 5804 7510 5802 7510 5797 7499 C 5793 7489 5791 7490 5791 7503 C 5790 7512 5797 7520 5805 7520 C 5813 7520 5820 7512 5820 7503 z M 5640 7490 C 5640 7485 5633 7483 5625 7486 C 5617 7490 5610 7494 5610 7496 C 5610 7498 5617 7500 5625 7500 C 5633 7500 5640 7496 5640 7490 z M 4358 7458 C 4400 7458 4419 7455 4400 7453 C 4187 7433 4097 7398 4047 7319 C 4022 7278 4014 7272 3999 7280 C 3962 7300 3966 7308 4048 7383 C 4058 7392 4076 7400 4088 7400 C 4100 7400 4110 7404 4110 7409 C 4110 7423 4190 7451 4210 7445 C 4220 7442 4234 7446 4242 7454 C 4249 7463 4261 7467 4268 7465 C 4276 7462 4316 7459 4358 7458 z M 4599 7412 C 4666 7381 4758 7233 4778 7123 C 4806 6965 4725 6798 4587 6730 C 4485 6680 4412 6674 4309 6709 C 4229 6736 4173 6778 4116 6854 C 4059 6930 4045 6981 4045 7105 C 4045 7194 4049 7212 4073 7262 C 4110 7338 4145 7365 4243 7395 C 4383 7438 4528 7445 4599 7412 z M 5716 7405 C 5901 7358 5932 7343 5969 7283 C 6005 7226 6009 7161 5984 7047 C 5941 6853 5826 6732 5651 6695 C 5567 6678 5506 6682 5413 6712 C 5363 6728 5338 6744 5288 6793 C 5253 6827 5214 6876 5202 6903 C 5131 7048 5158 7240 5266 7360 C 5296 7393 5311 7401 5373 7414 C 5529 7447 5554 7446 5716 7405 z M 5863 7433 C 5850 7431 5828 7431 5813 7433 C 5797 7435 5808 7437 5835 7437 C 5863 7437 5875 7435 5863 7433 z M 6030 7374 C 6065 7348 6112 7318 6136 7306 L 6179 7284 L 6110 7285 L 6042 7285 L 6021 7327 C 6010 7350 5989 7377 5975 7386 C 5950 7402 5942 7420 5959 7420 C 5964 7420 5996 7399 6030 7374 z" stroke-linecap="round" />
</g>
		<g transform="matrix(0.13 0 0 -0.13 -83.87 -254.51)"  >
<path style="stroke: none; stroke-width: 1; stroke-dasharray: none; stroke-linecap: butt; stroke-dashoffset: 0; stroke-linejoin: miter; stroke-miterlimit: 4; fill: rgb(0,0,0); fill-rule: nonzero; opacity: 1;" vector-effect="non-scaling-stroke"  transform=" translate(-4396.55, -7204.88)" d="M 4377 7359 C 4362 7347 4329 7313 4305 7283 C 4268 7238 4260 7221 4260 7186 C 4260 7108 4326 7030 4392 7030 C 4465 7030 4516 7075 4530 7151 C 4541 7212 4523 7265 4473 7318 C 4445 7347 4440 7351 4458 7328 C 4508 7268 4511 7210 4467 7163 C 4439 7132 4400 7134 4368 7168 C 4306 7234 4308 7267 4375 7329 C 4400 7352 4420 7373 4420 7375 C 4420 7385 4404 7379 4377 7359 z" stroke-linecap="round" />
</g>
		<g transform="matrix(0.13 0 0 -0.13 67.32 -254.86)"  >
<path style="stroke: none; stroke-width: 1; stroke-dasharray: none; stroke-linecap: butt; stroke-dashoffset: 0; stroke-linejoin: miter; stroke-miterlimit: 4; fill: rgb(0,0,0); fill-rule: nonzero; opacity: 1;" vector-effect="non-scaling-stroke"  transform=" translate(-5530.47, -7207.46)" d="M 5590 7380 C 5590 7374 5601 7347 5615 7320 C 5657 7238 5644 7178 5579 7144 C 5551 7130 5546 7130 5524 7144 C 5488 7168 5467 7206 5472 7239 L 5476 7268 L 5427 7243 L 5378 7218 L 5384 7173 C 5395 7088 5445 7033 5516 7024 C 5623 7010 5712 7153 5674 7279 C 5655 7344 5590 7422 5590 7380 z" stroke-linecap="round" />
</g>
		<g transform="matrix(0.13 0 0 -0.13 135 -598.53)"  >
<path style="stroke: none; stroke-width: 1; stroke-dasharray: none; stroke-linecap: butt; stroke-dashoffset: 0; stroke-linejoin: miter; stroke-miterlimit: 4; fill: rgb(0,0,0); fill-rule: nonzero; opacity: 1;" vector-effect="non-scaling-stroke"  transform=" translate(-6038.06, -9785.01)" d="M 6027 9791 C 5974 9771 5933 9751 5936 9747 C 5940 9743 5965 9740 5991 9740 C 6027 9740 6048 9747 6086 9773 C 6130 9802 6153 9831 6133 9830 C 6129 9829 6081 9812 6027 9791 z" stroke-linecap="round" />
</g>
		<g transform="matrix(0.13 0 0 -0.13 -185.35 58.94)"  >
<path style="stroke: none; stroke-width: 1; stroke-dasharray: none; stroke-linecap: butt; stroke-dashoffset: 0; stroke-linejoin: miter; stroke-miterlimit: 4; fill: rgb(0,0,0); fill-rule: nonzero; opacity: 1;" vector-effect="non-scaling-stroke"  transform=" translate(-3635.46, -4853.96)" d="M 3631 4883 C 3624 4834 3617 4782 3614 4765 C 3603 4697 3629 4769 3644 4849 C 3662 4943 3664 4970 3652 4970 C 3647 4970 3638 4931 3631 4883 z" stroke-linecap="round" />
</g>
		<g transform="matrix(0.13 0 0 -0.13 173.27 58.97)"  >
<path style="stroke: none; stroke-width: 1; stroke-dasharray: none; stroke-linecap: butt; stroke-dashoffset: 0; stroke-linejoin: miter; stroke-miterlimit: 4; fill: rgb(0,0,0); fill-rule: nonzero; opacity: 1;" vector-effect="non-scaling-stroke"  transform=" translate(-6325.09, -4853.74)" d="M 6316 4875 C 6318 4826 6324 4772 6329 4755 C 6345 4703 6341 4825 6325 4900 L 6311 4965 L 6316 4875 z" stroke-linecap="round" />
</g>
		<g transform="matrix(0.13 0 0 -0.13 0 368.54)"  >
<path style="stroke: none; stroke-width: 1; stroke-dasharray: none; stroke-linecap: butt; stroke-dashoffset: 0; stroke-linejoin: miter; stroke-miterlimit: 4; fill: rgb(0,0,0); fill-rule: nonzero; opacity: 1;" vector-effect="non-scaling-stroke"  transform=" translate(-5025.59, -2532.01)" d="M 1884 4315 C 1851 4301 1804 4250 1788 4211 C 1778 4187 1777 3971 1785 3905 C 1788 3889 1794 3823 1800 3760 C 1818 3559 1880 2968 1895 2855 C 1897 2839 1906 2744 1915 2645 C 1936 2397 1946 2297 1974 2060 C 2013 1730 2048 1430 2054 1365 C 2057 1332 2067 1231 2076 1140 C 2084 1049 2092 948 2093 915 L 2094 855 L 1783 850 C 1486 845 1470 844 1456 825 C 1439 802 1425 751 1434 743 C 1441 736 8620 733 8620 740 C 8620 743 8607 768 8592 795 L 8565 845 L 8171 848 L 7777 850 L 7783 953 C 7790 1058 7820 1336 7845 1520 C 7852 1578 7873 1760 7889 1925 C 7906 2090 7929 2308 7940 2410 C 7951 2512 7971 2708 7985 2845 C 8000 2983 8013 3109 8016 3125 C 8018 3142 8031 3263 8045 3395 C 8122 4138 8123 4161 8086 4224 C 8073 4247 8046 4279 8026 4297 L 7990 4328 L 4952 4328 C 2524 4328 1908 4325 1884 4315 z" stroke-linecap="round" />
</g>
</g>
</g>
</svg>